<?xml version="1.0" encoding="utf-8"?>
<!-- Generator: Adobe Illustrator 27.5.0, SVG Export Plug-In . SVG Version: 6.00 Build 0)  -->
<svg version="1.1" xmlns="http://www.w3.org/2000/svg" xmlns:xlink="http://www.w3.org/1999/xlink" x="0px" y="0px"
	 viewBox="0 0 500 500" style="enable-background:new 0 0 500 500;" xml:space="preserve">
<g id="BACKGROUND">
	<rect style="fill:#CCF5FF;" width="500" height="500"/>
</g>
<g id="OBJECTS">
	<g>
		<ellipse style="fill:#A9E9FF;" cx="117.394" cy="429.535" rx="40.553" ry="6.189"/>
		<ellipse style="fill:#A9E9FF;" cx="278.644" cy="430.489" rx="137.701" ry="13.014"/>
		<path style="fill:#81CBEB;" d="M409.835,168.453c5.241,0.533,10.956,0.082,15.053-3.229c4.797-3.876,6.051-11.473,2.755-16.685
			c-4.051-6.406-11.688-7.05-17.969-10.055c-9.986-4.777-15.228-12.703-23.111-19.805c-10.224-9.212-26.31-3.107-20.945,11.754
			C372.59,149.746,388.674,166.3,409.835,168.453z"/>
		<path style="fill:#81CBEB;" d="M463.431,370.093c-4.373-9.293-11.675-17.421-20.534-23.368
			c-21.379-14.354-61.14-37.591-40.205-66.711c14.828-20.625,42.845-23.919,49.385-50.916c3.562-14.703-0.217-32.057-12.491-40.898
			c-14.004-10.088-32.87-7.45-48.716-12.696c-11.334-3.752-22.107-10.364-28.657-20.346c-11.787-17.965-7.827-41.421-18.521-59.796
			c-11.281-19.384-34.626-31.183-56.473-32.744c-27.001-1.929-53.596,9.178-75.467,25.13c-13.09,9.547-19.309,21.611-22.989,37.067
			c-3.583,15.05-4.557,33.936-16.676,45.129c-4.838,4.468-11.137,6.973-17.369,9.103c-25.097,8.577-50.13,7.833-70.147,28.205
			c-10.436,10.62-17.802,25.184-17.656,40.305c0.214,22.116,20.826,34.353,28.031,53.581c10.096,26.945-18.355,46.563-32.096,66.527
			c-9.59,13.934-16.344,32.714-8.345,47.618c5.959,11.104,46.864,9.708,62.212,9.715c33.97,0.016,67.941,0.033,101.911,0.049
			c65.747,0.032,131.494,0.064,197.241,0.095c6.738,0.003,13.477,0.007,20.215,0.01c12.21,0.962,23.796-7.928,28.452-19.256
			C469.653,393.448,468.55,380.972,463.431,370.093z"/>
		<g>
			<path style="fill:#14B24B;" d="M336.458,252.174l1.586,0.322c1.469-6.799,5.087-19.556,13.105-30.612
				c0.002,0,0.002,0,0.004,0.005c0.012-0.018,0.025-0.037,0.039-0.056c4.908,6.398,9.52,6.332,10.197,6.284
				c-3.341-2.858-4.785-8.737-5.357-12.109c0.013-0.015,0.03-0.03,0.044-0.045c0-0.002,0-0.002,0-0.006
				c4.963-5.2,11.179-9.58,18.957-12.116c1.234-0.404,2.457-0.775,3.674-1.134c1.924,4.15,5.245,6.5,6.244,7.138
				c-1.021-1.279-0.438-5.926,0.039-8.778c0.015-0.002,0.027-0.005,0.04-0.01c0.001-0.012,0.005-0.028,0.007-0.038
				c6.646-1.606,12.945-2.595,18.681-3.159c1.236,4.386,3.88,6.422,4.361,6.762c-0.774-1.858,0.689-4.924,2.069-7.197
				c0.005-0.001,0.009,0,0.013,0.001c0.01-0.018,0.02-0.036,0.03-0.054c12.759-0.653,21.746,0.661,23.97,1.034
				c0.357,0.058,0.547,0.097,0.547,0.097s-6.366,16.731-15.965,31.451c-1.579-0.524-6.391-5.132-8.013-7.388
				c0,0,0.998,6.511,3.755,11.831c-3.154,4.175-6.671,8.314-10.546,12.19c-2.492-2.848-3.955-5.064-7.021-10.13
				c0,0-1.944,8.723-2.351,17.735c-5.977,4.167-14.911,9.769-22.114,11.663c-0.701-4.864-1.197-11.995,1.067-15.744
				c0,0-6.036,4.206-8.496,17.158c-6.89,2.367-19.066-4.015-24.666-7.584l-5.211-1.058L336.458,252.174z"/>
			<polygon style="fill:#148235;" points="407.004,212.754 343.11,255.246 343.446,253.593 341.523,253.203 			"/>
		</g>
		<g>
			<path style="fill:#86D979;" d="M367.908,174.527c2.003-6.04,7.251-20.388-6.711-23.665c-13.966-3.28-19.322,18.249-16.89,26.692
				c2.429,8.444-0.569,8.141-9.06,3.07c-8.492-5.067-13.252,2.656-14.882,13.319c-1.631,10.661,19.625,68.62,19.625,68.62
				l7.219-4.946c0,0,25.149-30.12,29.667-36.562c4.52-6.442-6.384-10.142-11.844-7.519c-5.462,2.62-6.283-1.84-1.644-8.924
				c4.638-7.082,16.182-13.866,15.235-19.324c-0.948-5.462-6.297-1.86-11.119,0.88C362.685,188.911,365.902,180.566,367.908,174.527
				z"/>
			<path style="fill:#14B24B;" d="M353.477,179.939c-0.345,2.299-0.842,5.586-1.433,9.531c-0.901,5.809-2.02,13.047-3.2,20.657
				c0.04-0.076,0.077-0.151,0.121-0.227c0.483-0.927,1.079-1.991,1.752-3.101c0.67-1.115,1.415-2.287,2.191-3.435
				c0.775-1.149,1.587-2.274,2.373-3.311c0.781-1.04,1.541-1.993,2.223-2.786c1.347-1.598,2.377-2.576,2.377-2.576
				s-0.522,1.318-1.505,3.166c-0.484,0.928-1.081,1.989-1.754,3.102c-0.67,1.118-1.411,2.287-2.19,3.434
				c-0.774,1.15-1.583,2.277-2.369,3.315c-0.783,1.038-1.541,1.99-2.224,2.783c-0.474,0.566-0.909,1.048-1.274,1.446
				c-0.331,2.122-0.663,4.262-0.995,6.408c-0.391,2.628-0.782,5.253-1.168,7.836c-0.363,2.587-0.722,5.135-1.068,7.595
				c-0.294,2.471-0.678,4.85-0.922,7.113c-0.076,0.716-0.16,1.416-0.245,2.106c0.341-0.434,0.781-0.971,1.32-1.581
				c0.65-0.749,1.437-1.59,2.304-2.467c0.867-0.881,1.814-1.79,2.787-2.67c0.975-0.883,1.978-1.733,2.937-2.508
				c0.957-0.776,1.876-1.476,2.684-2.05c1.61-1.162,2.789-1.814,2.789-1.814s-0.767,1.113-2.081,2.597
				c-0.65,0.748-1.439,1.594-2.306,2.468c-0.867,0.876-1.813,1.792-2.787,2.672c-0.974,0.88-1.973,1.735-2.933,2.507
				c-0.955,0.78-1.873,1.479-2.685,2.051c-0.866,0.629-1.603,1.098-2.103,1.406c-0.158,1.273-0.306,2.499-0.4,3.667
				c-0.094,0.99-0.185,1.937-0.271,2.842c-0.106,0.902-0.177,1.758-0.213,2.564c-0.083,1.609-0.218,3.018-0.221,4.178
				c0.016,2.316-0.001,3.654-0.001,3.654s-0.145-1.316-0.358-3.647c-0.085-1.165-0.063-2.581-0.106-4.208
				c-0.069-1.634,0.056-3.459,0.116-5.458c0.041-2.004,0.245-4.161,0.407-6.447c0.152-2.288,0.424-4.686,0.677-7.17
				c0.026-0.23,0.053-0.469,0.079-0.7c-0.471-0.698-1.145-1.72-1.919-2.998c-0.751-1.217-1.591-2.653-2.451-4.21
				c-0.422-0.782-0.887-1.576-1.306-2.408c-0.434-0.829-0.873-1.671-1.308-2.509c-0.421-0.854-0.839-1.705-1.251-2.542
				c-0.419-0.833-0.789-1.677-1.17-2.48c-0.745-1.617-1.405-3.14-1.944-4.464c-1.093-2.636-1.676-4.469-1.676-4.469
				s1.133,1.554,2.616,3.992c0.746,1.214,1.583,2.651,2.447,4.212c0.425,0.782,0.885,1.577,1.309,2.405
				c0.432,0.832,0.872,1.671,1.309,2.513c0.42,0.852,0.84,1.699,1.253,2.538c0.422,0.835,0.788,1.676,1.167,2.481
				c0.75,1.613,1.41,3.141,1.947,4.464c0.443,1.066,0.797,1.992,1.064,2.725c0.228-2.03,0.481-4.09,0.753-6.193
				c0.366-2.594,0.739-5.232,1.111-7.868c0.829-5.257,1.687-10.508,2.604-15.413c0.904-4.907,1.812-9.473,2.653-13.375
				c0.814-3.907,1.603-7.139,2.117-9.41c0.534-2.264,0.875-3.554,0.875-3.554S353.81,177.634,353.477,179.939z"/>
		</g>
		<path style="fill:#81CBEB;" d="M79.622,309.716c4.738,13.497,3.381,30.321-6.579,36.924c-9.485,6.288-24.801,0.053-24.992-11.948
			c-0.066-4.163,1.345-8.187,2.58-12.164c2.299-7.402,0.825-13.146,0.591-20.557c-0.183-5.792,0.741-11.569,7.885-11.327
			C68.774,290.974,75.989,299.367,79.622,309.716z"/>
		<path style="fill:#81CBEB;" d="M407.091,290.039c-4.328,13.09,5.846,26.999,21.293,31.534c6.845,2.009,14.655,1.367,20.526-2.686
			c4.169-2.878,7.193-7.64,7.8-12.695c0.719-5.987-3.009-11.02-1.794-17.141c0.676-3.404,2.333-6.569,2.847-10.001
			c1.796-11.99-12.408-11.589-20.268-10.01c-7.962,1.599-15.892,4.358-22.14,9.544C411.077,282.133,408.41,286.048,407.091,290.039z
			"/>
		<g>
			<path style="fill:#3A6DB5;" d="M185.438,419.622c-65.844-11.182-110.156-73.624-98.975-139.468
				c11.182-65.843,73.623-110.155,139.467-98.973c65.843,11.182,110.155,73.623,98.973,139.465
				C313.722,386.492,251.281,430.804,185.438,419.622z"/>
			<path style="fill:#538DD3;" d="M195.445,194.934c2.068-5.287,4.391-10.654,6.892-16.012c0.007,0,0.015,0,0.025,0.001
				c0.951-0.024,1.909-0.038,2.866-0.039c0.018,0,0.036,0,0.054,0.001c0.946-0.002,1.893,0.008,2.842,0.029
				c0.052,0.003,0.107,0.006,0.158,0.004c0.913,0.023,1.83,0.055,2.748,0.098c0.108,0.004,0.218,0.012,0.325,0.016
				c0.862,0.044,1.725,0.093,2.587,0.153c0.201,0.015,0.402,0.033,0.601,0.048c0.78,0.059,1.556,0.121,2.336,0.194
				c0.32,0.031,0.641,0.068,0.963,0.102c0.665,0.068,1.331,0.136,1.998,0.214c0.504,0.062,1.007,0.133,1.51,0.2
				c0.493,0.063,0.985,0.122,1.477,0.195c1.004,0.145,2.012,0.303,3.019,0.474c0.814,0.138,1.625,0.286,2.433,0.438
				c0.268,0.052,0.531,0.107,0.797,0.159c0.54,0.106,1.081,0.213,1.619,0.328c0.313,0.068,0.626,0.136,0.939,0.205
				c0.486,0.105,0.971,0.214,1.454,0.325c0.332,0.078,0.661,0.157,0.991,0.237c0.467,0.114,0.93,0.227,1.394,0.344
				c0.334,0.085,0.668,0.172,0.999,0.258c0.457,0.119,0.912,0.243,1.366,0.369c0.333,0.09,0.662,0.182,0.993,0.275
				c0.456,0.129,0.914,0.263,1.369,0.399c0.322,0.093,0.641,0.188,0.96,0.287c0.476,0.144,0.951,0.293,1.425,0.446
				c0.292,0.093,0.587,0.183,0.878,0.28c0.555,0.182,1.101,0.37,1.653,0.557c0.21,0.073,0.419,0.141,0.626,0.213
				c0.744,0.262,1.484,0.528,2.223,0.802c0.244,0.091,0.492,0.187,0.736,0.279c0.496,0.189,0.992,0.378,1.484,0.573
				c0.311,0.122,0.621,0.25,0.929,0.375c0.425,0.171,0.85,0.341,1.272,0.518c0.33,0.138,0.656,0.279,0.983,0.417
				c0.399,0.171,0.798,0.342,1.195,0.518c0.336,0.149,0.67,0.297,1.005,0.449c0.384,0.172,0.766,0.349,1.147,0.526
				c0.339,0.156,0.678,0.315,1.013,0.475c0.372,0.177,0.746,0.359,1.114,0.537c0.339,0.166,0.679,0.331,1.015,0.5
				c0.366,0.184,0.729,0.367,1.091,0.553c0.337,0.175,0.676,0.346,1.011,0.521c0.36,0.19,0.719,0.384,1.078,0.576
				c0.332,0.177,0.663,0.354,0.99,0.534c0.395,0.217,0.784,0.439,1.175,0.658c0.611,0.345,1.22,0.697,1.827,1.053
				c0.311,0.184,0.626,0.366,0.936,0.553c0.364,0.218,0.728,0.441,1.09,0.665c0.296,0.182,0.593,0.362,0.887,0.546
				c0.366,0.226,0.727,0.463,1.092,0.695c0.285,0.182,0.568,0.364,0.851,0.55c0.367,0.238,0.732,0.481,1.097,0.725
				c0.271,0.182,0.542,0.364,0.812,0.549c0.37,0.251,0.739,0.506,1.106,0.761c0.255,0.177,0.511,0.358,0.765,0.537
				c0.376,0.268,0.752,0.535,1.124,0.805c0.232,0.171,0.464,0.34,0.696,0.512c0.388,0.285,0.778,0.571,1.163,0.864
				c0.193,0.143,0.383,0.292,0.572,0.439c0.421,0.32,0.842,0.641,1.258,0.968c0.049,0.039,0.097,0.078,0.146,0.118
				c1.583,1.245,3.13,2.533,4.645,3.853c0.094,0.081,0.187,0.162,0.28,0.243c0.43,0.378,0.854,0.759,1.278,1.14
				c0.135,0.124,0.273,0.245,0.408,0.369c0.409,0.371,0.815,0.748,1.219,1.126c0.144,0.135,0.287,0.27,0.429,0.404
				c0.405,0.381,0.804,0.765,1.2,1.15c0.134,0.13,0.268,0.262,0.401,0.39c0.406,0.399,0.809,0.799,1.209,1.204
				c0.111,0.111,0.221,0.223,0.332,0.336c0.42,0.426,0.838,0.857,1.254,1.291c0.06,0.063,0.121,0.127,0.18,0.192
				c2.92,3.065,5.672,6.28,8.25,9.628c0.027,0.034,0.054,0.069,0.081,0.103c0.411,0.536,0.818,1.074,1.221,1.616
				c0.033,0.045,0.066,0.089,0.098,0.133c0.406,0.547,0.806,1.097,1.202,1.649c0.02,0.028,0.037,0.057,0.057,0.082
				c0.981,1.374,1.921,2.773,2.844,4.187c0.228,0.35,0.453,0.699,0.678,1.05c0.857,1.343,1.694,2.696,2.498,4.071
				c0.051,0.085,0.103,0.169,0.153,0.256c0.863,1.481,1.686,2.985,2.485,4.503c0.166,0.313,0.328,0.629,0.489,0.945
				c0.727,1.411,1.431,2.834,2.102,4.272c0.06,0.125,0.122,0.25,0.181,0.376c0.736,1.589,1.431,3.196,2.099,4.816
				c0.107,0.259,0.209,0.521,0.314,0.78c0.603,1.497,1.178,3.001,1.723,4.522c0.054,0.153,0.113,0.305,0.166,0.456
				c0.595,1.684,1.151,3.381,1.672,5.094c0.059,0.195,0.113,0.391,0.172,0.585c0.47,1.574,0.908,3.161,1.315,4.758
				c0.033,0.128,0.073,0.251,0.105,0.377c-0.006-0.014-0.012-0.027-0.018-0.04c1.364,5.413,2.37,10.948,2.973,16.577
				c-1.339,0.68-19.498,9.449-30.653-8.299c-11.589-18.437,1.731-33.8-25.017-44.359c-26.748-10.558-58.821,34.468-75.87,20.828
				C181.437,244.872,185.286,220.907,195.445,194.934z M176.844,272.709c-0.273-14.607-14.935-60.619-41.766-17.421
				c-7.122,11.47-28.477-9.151-24.014,10.806c3.849,17.196,15.523,21.738,22.189,16.492c6.672-5.246,14.197,5.319,24.28,11.85
				C167.62,300.968,177.179,290.658,176.844,272.709z M295.764,381.695c-5.507-9.807-10.379-20.946-35.756-9.066
				c-19.9,9.314-32.201,35.286-46.252,29.995c-14.051-5.292-24.434-25.373-40.428-25.925c-14.805-0.509-27.203,15.377-31.924,26.888
				c12.998,8.079,27.747,13.828,43.765,16.548C227.715,427.359,268.839,411.518,295.764,381.695z M133.059,373.162
				c-9.851-7.802-22.012-1.979-25.047-0.311c7.974,10.736,17.723,20.166,28.895,27.818
				C136.043,393.025,142.782,380.863,133.059,373.162z M271.729,312.718c20.079-4.328,31.332,6.867,23.484-10.712
				c-7.847-17.582-13.579-29.388-32.863-38.852c-19.286-9.467-13.438,6.227-25.004,15.097c-11.564,8.868-5.32,17.666-7.734,27.315
				c-2.411,9.651-7.207,19.667-5.22,26.193c1.985,6.529,16.246,18.234,37.476,7.139
				C283.096,327.804,271.729,312.718,271.729,312.718z"/>
		</g>
		<path style="fill:#FFFFFF;" d="M123.231,260.319H45.553l0.033-1.498c0.127-6.134,4.409-11.448,10.296-12.923
			c1.963-4.11,6.068-6.725,10.67-6.725c3.68,0,7.133,1.728,9.355,4.598c3.102-2.089,7.19-2.591,10.743-1.253
			c2.514-3.769,6.74-6.06,11.329-6.06c6.705,0,12.378,4.931,13.432,11.434c5.637,0.778,10.251,5.008,11.446,10.655L123.231,260.319z
			"/>
		<path style="fill:#FFFFFF;" d="M367.534,136.917c-2.05-5.103-6.928-8.653-12.583-8.909l-1.748-0.078l-0.118-1.747
			c-0.504-7.451-6.747-13.286-14.215-13.286c-5.288,0-10.119,2.906-12.607,7.583l-0.909,1.709l-1.72-0.888
			c-4.333-2.24-9.769-1.523-13.378,1.734l-1.815,1.634l-1.203-2.119c-2.113-3.72-6.069-6.03-10.331-6.03
			c-4.886,0-9.215,2.938-11.032,7.488l-0.397,0.998l-1.058,0.199c-5.911,1.119-10.447,5.891-11.404,11.712H367.534z"/>
		<g>
			<path style="fill:#86D979;" d="M327.129,421.731l-0.271-0.204l-0.504,0.67l0.871,0.657l0.504-0.672l-0.007-0.005
				c107.076-23.476,131.255-99.607,131.255-99.607C345.904,343.1,328.603,414.48,327.129,421.731z"/>
			<path style="fill:#14B24B;" d="M333.771,415.239c7.803-6.199,15.677-12.299,23.624-18.302
				c7.931-6.024,15.928-11.959,23.938-17.876c8.031-5.888,16.076-11.757,24.187-17.537c8.095-5.801,16.263-11.502,24.504-17.105
				c-7.801,6.2-15.675,12.302-23.622,18.304c-7.931,6.024-15.928,11.958-23.939,17.873c-8.032,5.886-16.077,11.755-24.189,17.534
				C350.178,403.931,342.01,409.634,333.771,415.239z"/>
		</g>
		<g>
			<path style="fill:#14B24B;" d="M315.074,417.115l-0.153-0.27l-0.667,0.378l0.491,0.868l0.668-0.38l-0.004-0.006
				c98.374,19.311,146.389-35.745,146.389-35.745C359.467,357.994,318.953,411.57,315.074,417.115z"/>
			<path style="fill:#148235;" d="M323.011,414.089c8.803-2.357,17.631-4.607,26.484-6.748c8.847-2.165,17.717-4.23,26.592-6.275
				c8.882-2.014,17.768-4.007,26.678-5.9c8.904-1.918,17.833-3.725,26.787-5.423c-8.803,2.359-17.631,4.61-26.483,6.75
				c-8.848,2.164-17.718,4.229-26.592,6.273c-8.882,2.012-17.769,4.005-26.678,5.898
				C340.893,410.581,331.964,412.389,323.011,414.089z"/>
		</g>
		<g>
			<path style="fill:#3C0458;" d="M130.165,161.541v45.494c0,0,36.444,17.094,84.472,14.653
				c48.028-2.442,65.123-15.467,65.123-15.467v-52.506L130.165,161.541z"/>
			<polygon style="fill:#3C0458;" points="84.392,149.646 84.392,153.919 204.984,185.464 326.975,153.309 326.975,149.783 			"/>
			<polygon style="fill:#59457B;" points="204.984,118.306 84.392,149.646 204.984,180.987 326.975,149.783 			"/>
			<g>
				<path style="fill:#F7941D;" d="M115.597,207.34l-3.257-0.066c0.004-0.176,0.349-17.823,0-36.839
					c-0.078-4.314,1.17-7.776,3.714-10.293c3.97-3.929,9.73-4.121,10.815-4.121c0.013,0,0.026,0,0.038,0l72.072-8.602l0.387,3.233
					l-72.298,8.63l-0.12-0.005c-0.043-0.002-5.322-0.085-8.618,3.195c-1.874,1.865-2.794,4.523-2.731,7.902
					C115.946,189.455,115.599,207.163,115.597,207.34z"/>
			</g>
			<path style="fill:#F7941D;" d="M108.503,209.275c0,2.884,2.34,5.222,5.224,5.222s5.223-2.338,5.223-5.222
				c0-2.885-2.339-5.224-5.223-5.224S108.503,206.389,108.503,209.275z"/>
			<path style="fill:#F7941D;" d="M113.727,212.327c17.668,2.849,0,27.134,0,27.134S96.06,215.176,113.727,212.327z"/>
			<path style="fill:#3C0458;" d="M195.895,149.036c0,2.586,3.826,4.68,8.547,4.68c4.72,0,8.547-2.095,8.547-4.68
				c0-2.585-3.827-4.681-8.547-4.681C199.721,144.355,195.895,146.45,195.895,149.036z"/>
		</g>
		<g>
			<path style="fill:#007270;" d="M367.438,234.094v193.871l26.847-0.002l-0.001-193.869H367.438z M378.255,242.8
				c0-1.441,1.166-2.608,2.607-2.608c1.441,0,2.605,1.167,2.606,2.607c0,1.441-1.165,2.606-2.606,2.606
				C379.421,245.405,378.255,244.239,378.255,242.8z"/>
			<g>
				<g>
					<rect x="385.41" y="256.393" style="fill:#FFFFFF;" width="8.875" height="0.91"/>
				</g>
				<g>
					<g>
						<g>
							<rect x="385.41" y="411.124" style="fill:#FFFFFF;" width="8.874" height="0.911"/>
						</g>
						<g>
							<g>
								<rect x="389.847" y="396.277" style="fill:#FFFFFF;" width="4.437" height="0.91"/>
							</g>
							<g>
								<rect x="389.847" y="399.918" style="fill:#FFFFFF;" width="4.437" height="0.91"/>
							</g>
							<g>
								<rect x="389.846" y="403.557" style="fill:#FFFFFF;" width="4.437" height="0.911"/>
							</g>
							<g>
								<rect x="389.847" y="407.2" style="fill:#FFFFFF;" width="4.437" height="0.91"/>
							</g>
						</g>
					</g>
					<g>
						<g>
							<rect x="385.41" y="391.703" style="fill:#FFFFFF;" width="8.874" height="0.91"/>
						</g>
						<g>
							<g>
								<rect x="389.847" y="376.856" style="fill:#FFFFFF;" width="4.437" height="0.91"/>
							</g>
							<g>
								<rect x="389.847" y="380.496" style="fill:#FFFFFF;" width="4.437" height="0.911"/>
							</g>
							<g>
								<rect x="389.846" y="384.137" style="fill:#FFFFFF;" width="4.437" height="0.91"/>
							</g>
							<g>
								<rect x="389.847" y="387.779" style="fill:#FFFFFF;" width="4.437" height="0.91"/>
							</g>
						</g>
					</g>
					<g>
						<g>
							<rect x="385.41" y="372.28" style="fill:#FFFFFF;" width="8.874" height="0.91"/>
						</g>
						<g>
							<g>
								<rect x="389.847" y="357.432" style="fill:#FFFFFF;" width="4.437" height="0.91"/>
							</g>
							<g>
								<rect x="389.847" y="361.073" style="fill:#FFFFFF;" width="4.437" height="0.91"/>
							</g>
							<g>
								<rect x="389.847" y="364.714" style="fill:#FFFFFF;" width="4.436" height="0.91"/>
							</g>
							<g>
								<rect x="389.847" y="368.354" style="fill:#FFFFFF;" width="4.437" height="0.91"/>
							</g>
						</g>
					</g>
					<g>
						<g>
							<rect x="385.41" y="352.857" style="fill:#FFFFFF;" width="8.874" height="0.91"/>
						</g>
						<g>
							<g>
								<rect x="389.847" y="338.009" style="fill:#FFFFFF;" width="4.437" height="0.91"/>
							</g>
							<g>
								<rect x="389.847" y="341.65" style="fill:#FFFFFF;" width="4.437" height="0.91"/>
							</g>
							<g>
								<rect x="389.847" y="345.291" style="fill:#FFFFFF;" width="4.436" height="0.91"/>
							</g>
							<g>
								<rect x="389.847" y="348.931" style="fill:#FFFFFF;" width="4.437" height="0.911"/>
							</g>
						</g>
					</g>
					<g>
						<g>
							<rect x="385.41" y="333.434" style="fill:#FFFFFF;" width="8.873" height="0.91"/>
						</g>
						<g>
							<g>
								<rect x="389.846" y="318.588" style="fill:#FFFFFF;" width="4.437" height="0.91"/>
							</g>
							<g>
								<rect x="389.846" y="322.227" style="fill:#FFFFFF;" width="4.437" height="0.91"/>
							</g>
							<g>
								<rect x="389.846" y="325.867" style="fill:#FFFFFF;" width="4.436" height="0.911"/>
							</g>
							<g>
								<rect x="389.846" y="329.51" style="fill:#FFFFFF;" width="4.437" height="0.91"/>
							</g>
						</g>
					</g>
					<g>
						<g>
							<rect x="385.409" y="314.011" style="fill:#FFFFFF;" width="8.873" height="0.91"/>
						</g>
						<g>
							<g>
								<rect x="389.846" y="299.164" style="fill:#FFFFFF;" width="4.437" height="0.911"/>
							</g>
							<g>
								<rect x="389.846" y="302.803" style="fill:#FFFFFF;" width="4.437" height="0.91"/>
							</g>
							<g>
								<rect x="389.846" y="306.444" style="fill:#FFFFFF;" width="4.436" height="0.91"/>
							</g>
							<g>
								<rect x="389.846" y="310.087" style="fill:#FFFFFF;" width="4.437" height="0.91"/>
							</g>
						</g>
					</g>
					<g>
						<g>
							<rect x="385.409" y="294.589" style="fill:#FFFFFF;" width="8.873" height="0.91"/>
						</g>
						<g>
							<g>
								<rect x="389.846" y="279.741" style="fill:#FFFFFF;" width="4.437" height="0.91"/>
							</g>
							<g>
								<rect x="389.846" y="283.382" style="fill:#FFFFFF;" width="4.437" height="0.91"/>
							</g>
							<g>
								<rect x="389.846" y="287.023" style="fill:#FFFFFF;" width="4.436" height="0.91"/>
							</g>
							<g>
								<rect x="389.846" y="290.664" style="fill:#FFFFFF;" width="4.437" height="0.91"/>
							</g>
						</g>
					</g>
					<g>
						<g>
							<rect x="385.41" y="275.166" style="fill:#FFFFFF;" width="8.874" height="0.911"/>
						</g>
						<g>
							<g>
								<rect x="389.847" y="260.319" style="fill:#FFFFFF;" width="4.437" height="0.91"/>
							</g>
							<g>
								<rect x="389.847" y="263.959" style="fill:#FFFFFF;" width="4.437" height="0.91"/>
							</g>
							<g>
								<rect x="389.847" y="267.599" style="fill:#FFFFFF;" width="4.436" height="0.911"/>
							</g>
							<g>
								<rect x="389.847" y="271.242" style="fill:#FFFFFF;" width="4.437" height="0.91"/>
							</g>
						</g>
					</g>
				</g>
			</g>
		</g>
		<g>
			<path style="fill:#C877B1;" d="M368.678,370.511c0,4.647-4.074,8.415-9.101,8.415H248.534c-5.026,0-9.102-3.768-9.102-8.415
				v-139.42c0-4.648,4.075-8.416,9.102-8.416h111.043c5.027,0,9.101,3.768,9.101,8.416V370.511z"/>
			<path style="fill:#FFFFFF;" d="M362.309,364.865c0,4.203-4.074,7.611-9.102,7.611H242.165c-5.027,0-9.102-3.408-9.102-7.611
				V238.781c0-4.203,4.074-7.61,9.102-7.61h111.042c5.028,0,9.102,3.408,9.102,7.61V364.865z"/>
			<path style="fill:#E6E7E8;" d="M353.662,231.171H270.38c-5.027,0-9.102,3.408-9.102,7.61v126.084
				c0,4.203,4.075,7.611,9.102,7.611h83.282V231.171z"/>
			<path style="fill:#C8A7CF;" d="M338.34,209.933h-91.625h-19.417c-5.026,0-9.102,4.076-9.102,9.102v150.79
				c0,5.025,4.075,9.102,9.102,9.102h19.417h91.625c5.027,0,9.102-4.077,9.102-9.102v-150.79
				C347.442,214.009,343.367,209.933,338.34,209.933z"/>
			<path style="fill:#C877B1;" d="M227.298,209.933c-5.026,0-9.102,4.076-9.102,9.102v150.79c0,5.025,4.075,9.102,9.102,9.102
				h19.417V209.933H227.298z"/>
			<path style="fill:#FFFFFF;" d="M322.563,243.758h-60.072c-5.027,0-9.102,4.075-9.102,9.102v12.441
				c0,5.027,4.075,9.101,9.102,9.101h60.072c5.027,0,9.102-4.074,9.102-9.101V252.86
				C331.665,247.834,327.59,243.758,322.563,243.758z"/>
			<path style="opacity:0.5;fill:#C8A7CF;" d="M218.196,240.764v129.061c0,5.025,4.075,9.102,9.102,9.102h19.417h91.625
				c5.027,0,9.102-4.077,9.102-9.102v-22.086C265.902,343.925,230.23,272.975,218.196,240.764z"/>
		</g>
		<g>
			<path style="fill:#14B24B;" d="M117.744,359.644h-1.618c-0.087-6.955-1.095-20.177-6.754-32.607c-0.002,0-0.002,0-0.005,0.004
				c-0.008-0.02-0.017-0.041-0.027-0.062c-6.083,5.294-10.589,4.312-11.243,4.13c3.843-2.137,6.427-7.611,7.659-10.802
				c-0.01-0.018-0.024-0.035-0.035-0.053c0.001-0.002,0.001-0.002,0.001-0.006c-3.829-6.083-9.05-11.612-16.168-15.645
				c-1.129-0.642-2.254-1.248-3.375-1.842c-2.711,3.684-6.433,5.327-7.539,5.753c1.255-1.05,1.608-5.721,1.708-8.61
				c-0.014-0.005-0.026-0.01-0.037-0.018c0.001-0.012,0.001-0.028,0.001-0.039c-6.193-2.896-12.17-5.118-17.679-6.811
				c-2.084,4.053-5.08,5.521-5.618,5.759c1.128-1.667,0.304-4.963-0.597-7.464c-0.004-0.002-0.009-0.002-0.013-0.002
				c-0.007-0.02-0.013-0.039-0.019-0.059c-12.374-3.178-21.443-3.678-23.697-3.754c-0.362-0.014-0.556-0.014-0.556-0.014
				s2.911,17.664,9.39,33.999c1.652-0.199,7.284-3.758,9.322-5.646c0,0-2.274,6.183-6.033,10.847
				c2.26,4.719,4.884,9.475,7.911,14.044c3.009-2.295,4.883-4.176,8.896-8.531c0,0,0.17,8.935-1.224,17.848
				c5.028,5.273,12.67,12.54,19.352,15.829c1.654-4.627,3.559-11.517,2.086-15.641c0,0,5.078,5.322,4.913,18.505
				c6.282,3.69,19.484-0.143,25.682-2.526h5.317V359.644z"/>
			<polygon style="fill:#148235;" points="56.45,306.978 110.614,361.331 110.614,359.644 112.576,359.644 			"/>
			<path style="fill:#86D979;" d="M85.871,269.294c0,0-17.296,49.504,29.684,104.017h-0.006v0.551h0.716v-0.551h-0.224
				C118.125,368.923,137.162,324.623,85.871,269.294z"/>
			<path style="fill:#14B24B;" d="M115.638,372.834c-0.129-0.546-0.41-1.331-0.714-2.341c-0.642-2.011-1.55-4.889-2.643-8.336
				c-0.536-1.726-1.13-3.592-1.722-5.58c-0.595-1.984-1.247-4.07-1.864-6.247c-0.616-2.17-1.314-4.401-1.934-6.69
				c-0.636-2.283-1.285-4.607-1.938-6.93c-0.621-2.328-1.242-4.654-1.856-6.949c-0.623-2.288-1.169-4.559-1.736-6.748
				c-0.568-2.192-1.066-4.316-1.552-6.334c-0.498-2.013-0.932-3.923-1.329-5.691c-1.618-7.059-2.47-11.825-2.47-11.824
				c0,0,1.755,4.514,4.01,11.397c0.568,1.719,1.187,3.58,1.792,5.562c0.619,1.979,1.291,4.062,1.921,6.233
				c0.637,2.166,1.336,4.4,1.969,6.686c0.646,2.289,1.298,4.608,1.954,6.93c0.615,2.33,1.236,4.661,1.845,6.958
				c0.62,2.293,1.155,4.567,1.708,6.762c0.549,2.193,1.043,4.324,1.505,6.349c0.472,2.019,0.891,3.934,1.251,5.711
				c0.754,3.543,1.306,6.519,1.627,8.618c0.175,1.041,0.285,1.866,0.323,2.439c0.02,0.208,0.035,0.368,0.046,0.501h-0.065
				C115.732,373.182,115.692,373.03,115.638,372.834z"/>
			<path style="fill:#14B24B;" d="M165.503,307.577c3.429-4.51,11.988-15.081,1.173-21.868c-10.817-6.791-21.538,9.797-21.924,17.61
				c-0.389,7.813-2.827,6.693-8.517-0.027c-5.692-6.717-11.928-1.585-16.376,6.926c-4.449,8.509-3.262,63.457-3.262,63.457
				l7.507-2.084c0,0,29.869-18.116,35.533-22.239c5.665-4.122-2.452-10.383-7.807-9.749c-5.356,0.632-4.761-3.362,1.189-7.991
				c5.949-4.627,17.629-7.012,18.405-11.882c0.777-4.874-4.767-3.383-9.619-2.466C156.955,318.186,162.072,312.085,165.503,307.577z
				"/>
			<path style="fill:#148235;" d="M151.787,307.973c-0.954,1.837-2.32,4.462-3.956,7.614c-2.434,4.633-5.465,10.407-8.653,16.476
				c0.056-0.052,0.108-0.105,0.167-0.156c0.674-0.642,1.483-1.365,2.371-2.107c0.886-0.746,1.852-1.518,2.837-2.262
				c0.984-0.744,1.993-1.458,2.954-2.104c0.958-0.651,1.873-1.234,2.676-1.705c1.596-0.957,2.745-1.484,2.745-1.484
				s-0.82,0.959-2.181,2.233c-0.675,0.642-1.484,1.364-2.372,2.107c-0.887,0.748-1.848,1.519-2.835,2.26
				c-0.983,0.745-1.99,1.461-2.952,2.109c-0.959,0.648-1.872,1.231-2.676,1.703c-0.563,0.34-1.068,0.62-1.49,0.85
				c-0.891,1.692-1.788,3.399-2.686,5.111c-1.087,2.101-2.174,4.199-3.244,6.263c-1.052,2.074-2.089,4.117-3.09,6.089
				c-0.96,1.996-1.97,3.89-2.828,5.725c-0.271,0.581-0.543,1.147-0.813,1.704c0.413-0.267,0.938-0.592,1.568-0.951
				c0.763-0.443,1.669-0.925,2.652-1.414c0.984-0.492,2.044-0.984,3.117-1.445c1.076-0.463,2.166-0.889,3.197-1.266
				c1.03-0.377,2.006-0.702,2.852-0.953c1.691-0.514,2.872-0.724,2.872-0.724s-0.967,0.716-2.501,1.587
				c-0.763,0.443-1.672,0.928-2.654,1.414c-0.983,0.488-2.044,0.986-3.118,1.447c-1.074,0.46-2.162,0.892-3.194,1.266
				c-1.029,0.382-2.004,0.706-2.853,0.953c-0.911,0.279-1.667,0.462-2.177,0.577c-0.5,1.026-0.979,2.017-1.395,2.973
				c-0.364,0.807-0.714,1.578-1.048,2.315c-0.349,0.729-0.656,1.43-0.919,2.099c-0.534,1.331-1.054,2.479-1.391,3.456
				c-0.654,1.955-1.054,3.077-1.054,3.077s0.257-1.15,0.75-3.175c0.265-1.006,0.691-2.191,1.124-3.575
				c0.414-1.396,1.045-2.898,1.672-4.564c0.612-1.676,1.406-3.434,2.202-5.313c0.788-1.883,1.708-3.824,2.638-5.844
				c0.088-0.186,0.18-0.38,0.268-0.567c-0.195-0.724-0.468-1.779-0.752-3.078c-0.282-1.242-0.575-2.694-0.85-4.253
				c-0.13-0.781-0.293-1.583-0.406-2.405c-0.126-0.823-0.253-1.659-0.378-2.491c-0.109-0.841-0.215-1.678-0.321-2.502
				c-0.113-0.822-0.181-1.64-0.27-2.426c-0.161-1.577-0.278-3.05-0.349-4.321c-0.16-2.535-0.122-4.247-0.122-4.247
				s0.506,1.636,1.052,4.117c0.278,1.238,0.569,2.69,0.846,4.253c0.133,0.781,0.291,1.583,0.409,2.403
				c0.124,0.825,0.252,1.659,0.377,2.494c0.108,0.839,0.217,1.673,0.323,2.499c0.115,0.825,0.18,1.639,0.268,2.426
				c0.166,1.575,0.282,3.052,0.352,4.322c0.066,1.025,0.096,1.908,0.111,2.602c0.778-1.644,1.585-3.307,2.42-4.999
				c1.056-2.08,2.132-4.193,3.205-6.307c2.214-4.189,4.451-8.364,6.639-12.231c2.177-3.872,4.258-7.456,6.092-10.501
				c1.813-3.056,3.409-5.55,4.497-7.315c1.103-1.753,1.762-2.741,1.762-2.741S152.732,306.128,151.787,307.973z"/>
			<g>
				<path style="fill:#4F3743;" d="M134.604,426.414c0,2.195-1.779,3.975-3.976,3.975H101.64c-2.196,0-3.976-1.78-3.976-3.975l0,0
					c0-2.195,1.78-3.976,3.976-3.976h28.988C132.824,422.438,134.604,424.219,134.604,426.414L134.604,426.414z"/>
				<path style="fill:#654957;" d="M130.083,368.582H116.31c-0.059,0-0.116,0.009-0.176,0.01c-0.06-0.001-0.117-0.01-0.177-0.01
					h-13.772c-7.802,0-14.127,6.828-14.127,15.253v26.118c0,8.423,6.325,15.252,14.127,15.252h13.772c0.06,0,0.117-0.008,0.177-0.01
					c0.06,0.002,0.117,0.01,0.176,0.01h13.773c7.802,0,14.126-6.829,14.126-15.252v-26.118
					C144.209,375.41,137.885,368.582,130.083,368.582z"/>
				<path style="fill:#4F3743;" d="M155.158,372.762c0,3.609-2.926,6.533-6.534,6.533H83.643c-3.607,0-6.532-2.924-6.532-6.533l0,0
					c0-3.608,2.925-6.533,6.532-6.533h64.981C152.232,366.228,155.158,369.153,155.158,372.762L155.158,372.762z"/>
				<path style="opacity:0.5;fill:#654957;" d="M116.134,425.195c0.06,0.002,0.117,0.01,0.176,0.01h13.773
					c7.802,0,14.126-6.829,14.126-15.252v-25.094c-4.597,12.378-18.064,32.925-56.094,26.327
					c0.583,7.845,6.653,14.019,14.069,14.019h13.772C116.017,425.205,116.074,425.197,116.134,425.195z"/>
			</g>
		</g>
		<g>
			<path style="fill:#F6921E;" d="M375.758,350.094c1.509,0,2.73-1.223,2.73-2.73v-1.821c0-1.507-1.222-2.73-2.73-2.73H242.684
				h-22.871h-74.449c-1.778,0-3.22,1.115-3.22,2.491v29.605c0,1.377,1.442,2.491,3.22,2.491h97.32c0.005,0,0.008,0,0.012,0h133.062
				c1.509,0,2.73-1.223,2.73-2.73v-1.821c0-1.507-1.222-2.73-2.73-2.73H245.904v-20.025H375.758z"/>
			<rect x="153.142" y="342.814" style="fill:#3A58A8;" width="7.281" height="34.585"/>
			<path style="fill:#BE1E2D;" d="M391.561,388.258c1.508,0,2.73-1.824,2.73-4.073v-2.712c0-2.249-1.222-4.073-2.73-4.073H258.487
				h-22.871h-74.449c-1.779,0-3.22,1.663-3.22,3.714v44.153c0,2.052,1.441,3.714,3.22,3.714h97.32c0.005,0,0.008-0.002,0.012-0.002
				h133.062c1.508,0,2.73-1.822,2.73-4.07v-2.715c0-2.248-1.222-4.072-2.73-4.072H261.708v-29.862H391.561z"/>
			<rect x="168.946" y="377.401" style="fill:#F6921E;" width="7.281" height="51.578"/>
			<path style="fill:#A31425;" d="M391.561,377.399H258.487h-22.871h-3.801c0,0-1.82,0.482-2.361,1.705
				c-0.386,0.873-0.514,1.877-0.514,1.877v46.761c0,0-0.07,0.554,0.272,0.953c0.341,0.398,0.897,0.284,0.897,0.284h28.377
				c0.005,0,0.008-0.002,0.012-0.002h133.062c1.508,0,2.73-1.822,2.73-4.07v-2.715c0-2.248-1.222-4.072-2.73-4.072H261.708v-29.862
				h129.853c1.508,0,2.73-1.824,2.73-4.073v-2.712C394.291,379.224,393.069,377.399,391.561,377.399z"/>
			<path style="fill:#FFFFFF;" d="M375.378,386.45h-8.089H256.274c-6.257,0-11.328,7.495-11.328,16.741
				c0,9.246,5.072,16.74,11.328,16.74h111.015h8.089h12.24V386.45H375.378z"/>
			<rect x="260.318" y="410.964" style="fill:#E6E7E8;" width="124.961" height="2.283"/>
			<rect x="261.708" y="392.924" style="fill:#E6E7E8;" width="124.961" height="2.283"/>
			<rect x="275.184" y="402.488" style="fill:#E6E7E8;" width="61.334" height="1.909"/>
			<polygon style="fill:#F6921E;" points="355.495,413.454 349.237,405.479 342.525,413.454 342.525,392.924 355.495,392.924 			"/>
			<path style="fill:#F6921E;" d="M375.759,370.2H245.905v-14.647h-0.001v-5.46h129.853c1.509,0,2.73-1.223,2.73-2.73v-1.821
				c0-1.507-1.222-2.73-2.73-2.73H242.684h-22.871h-5.04l-0.005,0.006c-0.022-0.002-0.042-0.007-0.065-0.007
				c-0.865,0-1.565,0.7-1.565,1.565v20.365h0.001v11.177c0,0.864,0.7,1.566,1.565,1.566c0.022,0,0.042-0.007,0.065-0.007
				l0.005,0.005h5.04h22.871h133.074c1.508,0,2.73-1.222,2.73-2.73v-1.82C378.489,371.422,377.267,370.2,375.759,370.2z"/>
			<path style="fill:#FFFFFF;" d="M358.295,348.881h-8.088H239.192c-6.256,0-11.328,5.025-11.328,11.225
				c0,6.201,5.072,11.225,11.328,11.225h111.015h8.088h12.239v-22.451H358.295z"/>
			<rect x="241.126" y="355.176" style="fill:#E6E7E8;" width="124.961" height="2.283"/>
			<rect x="254.602" y="364.74" style="fill:#E6E7E8;" width="61.333" height="1.909"/>
			<polygon style="fill:#652D90;" points="339.692,366.99 333.434,361.642 326.722,366.99 326.722,353.223 339.692,353.223 			"/>
		</g>
		<path style="fill:#FFFFFF;" d="M258.661,105.367c-0.688-3.254-2.462-6.057-4.897-8.065c0.632-1.033,1.015-2.235,1.015-3.534
			c0-3.759-3.048-6.807-6.807-6.807c-1.425,0-2.746,0.441-3.839,1.19c-2.611-3.647-6.876-6.019-11.642-6.019
			c-3.128,0-6.086,1.023-8.508,2.813c-0.923-4.207-4.666-7.357-9.15-7.357c-5.05,0-9.156,3.996-9.354,8.997
			c-1.825-1.021-3.896-1.601-6.051-1.601c-4.841,0-9.161,2.754-11.225,7.075c-6.193,1.554-10.699,7.142-10.833,13.594l-0.033,1.578
			h81.718L258.661,105.367z"/>
		<g>
			<path style="fill:#F05B82;" d="M174.171,334.068c0,0,0.363,2.359-5.081,3.266c-5.444,0.907-10.707,1.089-11.342,4.355v2.45
				c0,0,18.873-0.635,19.781-0.635c0.726-1.633,0.726-5.172,2.178-7.259C181.158,334.159,174.171,334.068,174.171,334.068z"/>
			<path style="fill:#97DAF8;" d="M179.713,313.637l1.047-2.639l0.908-2.393c0.392-0.97,0.853-2.049,1.551-3.267
				c0.73-1.206,1.598-2.64,3.606-4.187c0.5-0.377,1.059-0.742,1.776-1.078c0.637-0.334,1.46-0.6,2.275-0.793
				c0.808-0.194,1.702-0.242,2.55-0.246c0.749,0.021,1.465,0.118,2.12,0.26c2.637,0.613,4.152,1.667,5.176,2.269
				c2.03,1.256,3.863,2.663,5.495,4.06c3.263,2.806,5.871,5.529,8.256,7.497c2.123,1.757,4.324,2.934,6.998,4.049
				c1.149,0.469,4.102,1.203,7.287,1.88c5.653,1.2,9.436,6.545,8.737,12.281c-0.708,5.805-6.194,10.487-12.121,9.793
				c-9.244-1.083-18.571-7.886-24.378-14.892c-2.723-3.286-4.723-6.282-6.659-8.646c-0.371-0.458-0.735-0.87-1.1-1.279l-2.006,3.291
				c-3.83,6.003-7.374,12.401-11.002,18.725l-8.309-3.669C174.429,327.667,176.818,320.661,179.713,313.637z"/>
			<path style="opacity:0.5;fill:#97DAF8;" d="M228.76,319.048c-3.186-0.676-6.139-1.411-7.287-1.88
				c-2.078-0.866-3.87-1.774-5.562-2.959c-0.375,2.145-1.588,4.971-5.295,6.141c-6.328,1.997-8.086,1.646-11.602-1.87
				c-3.516-3.516-4.922-7.955-6.68-6.966c-1.758,0.989-7.446,18.659-7.446,18.659l0.003,0.003c2.068-3.596,4.158-7.155,6.344-10.58
				l2.006-3.291c0.364,0.409,0.729,0.821,1.1,1.279c1.936,2.364,3.935,5.36,6.659,8.646c5.807,7.007,15.134,13.809,24.378,14.892
				c2.666,0.312,5.238-0.47,7.331-1.946c1.131-4.053,1.992-8.8,1.992-10.505c0-1.544,0.286-3.862,0.066-6.113
				C233.237,320.831,231.171,319.56,228.76,319.048z"/>
			<path style="fill:#F05B82;" d="M176.501,372.512c0,0,0.363,2.359-5.081,3.267c-5.444,0.907-10.707,1.089-11.342,4.355v2.45
				c0,0,18.873-0.635,19.781-0.635c0.726-1.633,0.726-5.172,2.178-7.259C183.488,372.603,176.501,372.512,176.501,372.512z"/>
			<path style="fill:#97DAF8;" d="M177.082,362.208l1.026-5.587c0.187-0.965,0.307-1.789,0.55-2.871
				c0.225-1.079,0.52-2.152,0.832-3.227c1.317-4.278,3.44-8.509,6.515-12.24c5.31-6.443,13.055-10.247,21.175-11.758
				c8.618-1.604,17.196-1.296,24.93-5.898c0.589-0.351,1.31-0.373,1.908-0.038c3.561,1.997,14.638,9.34,18.697,12.044
				c0.896,0.597,1.104,1.811,0.496,2.699c-4.739,6.923-13.482,8.305-15.655,8.835c-5.068,1.245-9.95,1.39-14.105,1.249
				c-8.362-0.37-14.811-1.359-19.798-0.187c-4.98,1.039-9.515,4.527-12.449,9.95c-0.35,0.678-0.705,1.363-1.011,2.082
				c-0.322,0.705-0.681,1.694-1.02,2.527l-2.062,5.224l-4.131,10.468l-7.944-2.118L177.082,362.208z"/>
			<path style="opacity:0.5;fill:#97DAF8;" d="M190.193,357.263c0.306-0.719,0.66-1.405,1.011-2.082
				c2.934-5.424,7.469-8.911,12.449-9.95c4.988-1.173,11.436-0.184,19.798,0.187c4.156,0.141,9.037-0.004,14.105-1.249
				c2.173-0.53,10.916-1.913,15.655-8.835c0.608-0.888,0.4-2.103-0.496-2.699c-4.058-2.704-15.135-10.047-18.697-12.044
				c-0.598-0.336-1.319-0.313-1.908,0.037c-3.07,1.827-6.274,2.875-9.559,3.581c2.305,2.722,7.068,7.473,11.269,9.861
				c5.977,3.397-3.34,7.089-9.493,6.034c-6.153-1.055-21.684-0.714-26.663,4.038c-4.979,4.752-9.975,13.265-10.553,20.875
				l2.062-5.224C189.512,358.957,189.871,357.968,190.193,357.263z"/>
			<path style="fill:#F49782;" d="M194.628,279.718c0.28,1.944,3.15,4.839,3.382,3.623c0.231-1.216,0.289-3.715,1.186-3.542
				c0.896,0.172,0.517,2.893,0.811,4.051c0.294,1.158,1.915,2.679,1.915,2.679c4.231,2.447,8.631,4.766,13.023,6.831
				c4.358,2.027,8.961,3.914,12.975,4.716l1.365,0.172c0.427,0.039,0.673-0.058,0.998-0.043c0.211,0.027,0.189-0.061,0.177-0.102
				c-0.005-0.041-0.02-0.048-0.02-0.048c0.107-0.088,0.368-0.264,0.582-0.395c1.056-0.744,2.495-2.113,3.809-3.679
				c1.244-1.471,2.488-3.168,3.655-4.939c2.109-3.2,6.39-4.115,9.591-2.007l1.598,1.052c3.63,2.389,4.199,7.511,1.147,10.605
				c-0.02,0.02-0.039,0.04-0.059,0.06c-1.958,1.954-4.024,3.845-6.352,5.641c-2.355,1.775-4.88,3.534-8.378,4.834
				c-0.939,0.298-1.849,0.577-2.937,0.757c-0.301,0.05-0.615,0.07-0.919,0.082c-0.844,0.035-2.033,0.114-2.657-0.052
				c-0.904-0.173-1.91-0.332-2.691-0.585l-2.239-0.804c-5.428-2.389-9.594-5.368-13.766-8.437
				c-4.116-3.103-8.001-6.317-11.815-9.732c-4.835-1.743-7.33-3.922-7.477-7.455C191.383,279.467,194.348,277.774,194.628,279.718z"
				/>
			<path style="fill:#FFE76B;" d="M206.958,293.82c0,0-5.671-16.642-6.04-16.395c-0.37,0.246-9.985,2.892-9.985,2.892l4.808-7.253
				l-1.438-0.447l-5.932,9.06l6.261,16.562L206.958,293.82z"/>
			<polygon style="fill:#FFFFFF;" points="195.74,273.063 198.093,278.304 190.932,280.317 			"/>
			<path style="fill:#652D90;" d="M252.24,286.13c-5.192-2.7-11.678-1.355-16.565,1.227c-2.861,1.512-5.488,3.969-6.172,7.249
				c-0.741,3.552,2.155,6.948,0.464,10.425c-1.84,3.778-7.224,9.539-11.166,10.995c3.198,4.564,6.64,8.666,11.226,11.924
				c3.158,2.243,6.626,4.031,10.253,5.384c1.508,0.563,13.932,4.597,14.596,3.248c2.109-4.219,1.482-9.088,1.271-13.618
				c-0.314-6.73,1.247-12.948,2.327-19.515C259.513,297.128,258.515,289.393,252.24,286.13z"/>
			<path style="fill:#FCB19A;" d="M241.519,285.421c2.549-1.309,2.258-2.108,2.258-2.108l-0.3-2.996h4.086
				c0,0,0.999,5.793,0.699,7.391c-0.3,1.598-8.305,4.494-10.894,3.596C234.78,290.404,238.87,286.729,241.519,285.421z"/>
			<path style="fill:#F49782;" d="M247.564,280.317h-4.086l0.3,2.996c0,0,0.059,0.172-0.126,0.485
				c1.201,0.37,2.705,0.552,4.449,0.218C247.877,282.136,247.564,280.317,247.564,280.317z"/>
			<path style="fill:#FCB19A;" d="M251.557,271.312c0.704,4.278-2.081,9.925-5.99,11.086c-6.392,1.898-7.971-3.495-7.082-7.291
				c0.563-2.403,1.166-5.082,2.874-6.964C244.64,264.528,250.793,266.678,251.557,271.312z"/>
			<path style="fill:#BE1E2D;" d="M252.794,266.814c0,0,0.309-9.563,8.792-8.792c8.483,0.771,13.727,10.707,8.946,16.535
				c-4.781,5.829-4.235,12.307,1.816,15.083c6.051,2.776,9.289,11.042,2.503,14.698c-6.786,3.656-19.878,2.594-21.292-11.922
				c0.008-4.01,0.51-13.663,5.271-17.859c4.762-4.197-1.354-8.055-2.991-6.197C254.202,270.218,252.794,266.814,252.794,266.814z"/>
			<path style="opacity:0.5;fill:#652D90;" d="M252.794,330.806c-8.871-2.521-11.12-10.986-7.833-14.408
				c3.287-3.422,3.737-3.782,7.833-13.408c-13.583,11.928-24.059,10.985-28.817,9.552c-1.742,1.589-3.577,2.894-5.177,3.485
				c3.199,4.564,6.64,8.666,11.226,11.924c3.158,2.243,6.626,4.031,10.253,5.384c1.508,0.563,13.932,4.597,14.596,3.248
				c0.762-1.524,1.163-3.133,1.36-4.78C255.225,331.502,254.094,331.175,252.794,330.806z"/>
			<path style="fill:#FCB19A;" d="M192.101,285.894c0.331,2.039,3.404,5.032,3.625,3.749c0.221-1.283,0.235-3.913,1.182-3.749
				c0.946,0.165,0.598,3.034,0.928,4.247c0.331,1.213,2.064,2.783,2.064,2.783c4.496,2.495,9.169,4.854,13.827,6.944
				c4.623,2.052,9.501,3.951,13.738,4.721l1.439,0.155c0.449,0.033,0.707-0.073,1.049-0.064c0.223,0.025,0.198-0.067,0.184-0.111
				c-0.006-0.043-0.021-0.05-0.021-0.05c0.111-0.094,0.381-0.284,0.605-0.426c6.005-3.836,8.214-15.627,17.357-11.772
				c3.557,1.5,6.266,5.821,5.096,9.691c-1.08,3.574-5.402,6.694-8.242,8.914c-2.445,1.911-5.068,3.808-8.724,5.242
				c-0.982,0.33-1.934,0.642-3.076,0.851c-0.315,0.058-0.646,0.085-0.966,0.104c-0.887,0.053-2.137,0.158-2.796-0.005
				c-0.954-0.166-2.016-0.314-2.842-0.565l-2.37-0.804c-5.755-2.413-10.193-5.469-14.639-8.62
				c-4.388-3.188-8.535-6.497-12.611-10.019c-5.12-1.745-7.784-3.99-8.005-7.704C188.682,285.691,191.77,283.855,192.101,285.894z"
				/>
			<path style="opacity:0.5;fill:#BE1E2D;" d="M273.388,290.19c2.006,2.591,0.222,9.563-6.462,8.844
				c-6.684-0.719-8.001-9.916-8.096-15.486s4.45-9.52,4.653-12.963c0.203-3.443-4.659-5.57-7.247-4.962
				c-0.912-0.626-1.99-1.639-2.693-2.393c-0.534,1.468-0.69,2.809-0.733,3.342c0.386,0.607,0.704,1.204,0.969,1.789
				c0.549,0.571,1.277,0.889,2.06,0.001c1.637-1.858,7.752,2.001,2.991,6.197c-4.761,4.197-5.264,13.849-5.271,17.859
				c1.414,14.515,14.506,15.578,21.292,11.921C281.235,300.898,278.744,293.379,273.388,290.19z"/>
			<path style="fill:#FFE76B;" d="M251.764,268.576c0.788,1.365,2.23,2.008,3.221,1.436c0.991-0.572,1.155-2.143,0.367-3.508
				c-0.788-1.365-2.23-2.008-3.221-1.436C251.14,265.64,250.975,267.211,251.764,268.576z"/>
			<path style="fill:#BE1E2D;" d="M239.273,268.033c0,0,0.02,4.134,6.678,4.86c1.574,0.242,0.242,2.663-0.484,3.995
				c-0.726,1.332,1.44,0.534,2.432-1.527c0.534-0.84,1.832,1.08,0.763,2.181c-1.069,1.101-2.719,2.08-2.367,3.239
				s1.507,0.992,2.776,0.611c1.27-0.382,4.956-4.504,4.487-10.535C253.09,264.827,244.235,261.468,239.273,268.033z"/>
			<path style="opacity:0.5;fill:#BE1E2D;" d="M250.519,272.616c-0.506-2.121-1.215-0.918-5.557-1.424
				c-2.928-0.341-4.49-2.432-5.199-3.76c-0.167,0.19-0.33,0.39-0.489,0.601c0,0,0.02,4.134,6.678,4.86
				c1.574,0.242,0.242,2.663-0.484,3.995c-0.726,1.332,1.44,0.534,2.432-1.527c0.534-0.84,1.832,1.08,0.763,2.181
				c-1.069,1.101-2.719,2.08-2.367,3.239c0.352,1.159,1.507,0.992,2.776,0.611c0.874-0.263,2.891-2.297,3.912-5.505
				C251.432,276.095,250.973,274.52,250.519,272.616z"/>
			<path style="opacity:0.5;fill:#FCB19A;" d="M248.319,303.481c-4.792,8.825-19.266,10.518-26.16,8.584
				c-6.893-1.934-25.252-14.956-25.252-14.956c4.076,3.522,8.223,6.831,12.611,10.019c4.446,3.151,8.885,6.208,14.639,8.62
				l2.37,0.804c0.826,0.252,1.888,0.4,2.842,0.565c0.659,0.163,1.91,0.058,2.796,0.005c0.32-0.019,0.65-0.046,0.966-0.104
				c1.141-0.209,2.094-0.521,3.076-0.851c3.656-1.434,6.279-3.33,8.724-5.242c2.84-2.22,7.163-5.34,8.242-8.914
				c0.796-2.633-0.206-5.473-2.047-7.494C251.069,296.629,250.428,299.597,248.319,303.481z"/>
			<path style="fill:#FFFFFF;" d="M177.793,342.72l-20.044,0.604v0.816c0,0,18.873-0.635,19.781-0.635
				C177.629,343.279,177.714,343.01,177.793,342.72z"/>
			<path style="fill:#FFFFFF;" d="M180.132,381.121l-20.055,0.604v0.858c0,0,18.873-0.635,19.781-0.635
				C179.963,381.712,180.051,381.428,180.132,381.121z"/>
		</g>
		<g>
			<path style="fill:#9B8579;" d="M391.235,431.761c-0.406-0.846-1.07-1.906-2.013-2.408c-1.704-0.909-5.69,0.795-8.985,0
				c-3.295-0.795-2.978-5.704-2.978-5.704l-5.649,0.818l0.97,10.279c0.094,0.996,0.986,1.716,1.979,1.599
				c5.06-0.594,12.967-2.375,15.96-3.072C391.19,433.116,391.533,432.382,391.235,431.761z"/>
			<path style="fill:#9B8579;" d="M337.525,438.76c0.107-0.932,0.109-2.183-0.421-3.111c-0.958-1.677-5.239-2.358-7.603-4.787
				c-2.365-2.429,0.519-6.414,0.519-6.414l-5.216-2.318l-4.656,9.215c-0.451,0.893-0.08,1.977,0.823,2.408
				c4.598,2.193,12.239,4.899,15.143,5.904C336.765,439.883,337.446,439.445,337.525,438.76z"/>
			<path style="opacity:0.5;fill:#9B8579;" d="M375.362,433.806c-1.022-0.869-1.38-8.073-1.431-8.533c0,0-1.299,0.195-2.206,0.416
				l0.854,9.056c0.094,0.996,0.986,1.716,1.979,1.599c4.792-0.562,12.132-2.189,15.439-2.951
				C386.901,434.002,376.383,434.674,375.362,433.806z"/>
			<path style="opacity:0.5;fill:#9B8579;" d="M322.321,432.229c-0.43-1.27,2.965-7.635,3.157-8.056c0,0-0.701-0.289-1.429-0.549
				l-3.901,7.721c-0.451,0.893-0.08,1.977,0.823,2.408c3.549,1.693,8.904,3.688,12.501,4.974
				C329.63,437.022,322.69,433.319,322.321,432.229z"/>
			<path style="fill:#FCB19A;" d="M396.832,352.314c-0.644-0.93-3.649-3.791-5.151-3.693c-1.502,0.099-3.648,0-3.648,0
				c-4.597-1.798-9.205-3.812-13.512-6.052c-2.132-1.13-4.231-2.344-5.953-3.639c-0.888-0.635-1.546-1.325-1.931-1.811
				c-0.248-0.408-0.472-0.702-0.751-1.185c-0.276-0.488-0.553-0.928-0.829-1.444c-2.226-4.112-4.28-8.694-6.264-13.224
				c-0.898-2.064-1.189-4.328-3.538-4.957c-1.898-0.509-3.998-0.277-5.717,0.683c-0.73,0.408-1.388,0.933-2.007,1.495
				c-0.645,0.585-1.261,1.226-1.654,2.003c-1.205,2.382,1.126,4.606,2.361,6.495c2.836,4.298,5.652,8.537,9.001,12.805
				c0.416,0.534,0.906,1.092,1.356,1.632c0.452,0.54,1.085,1.173,1.634,1.736c1.428,1.258,2.787,2.092,4.069,2.732
				c2.583,1.312,5.071,2.203,7.568,3.032c4.996,1.598,9.932,2.815,14.985,3.86c0,0,0.983,1.342,2.464,2.784s3.752,0.236,2.765,0
				s-2.469-2.43-1.777-2.784c0.691-0.354,4.526,1.536,5.242,2.252c0.715,0.715,2.075,0.572,2.075,0.358
				S397.476,353.244,396.832,352.314z"/>
			<path style="opacity:0.5;fill:#FCB19A;" d="M379.548,351.109c-11.555-3.804-16.451-9.66-17.986-13.275
				c-0.992-2.337-0.062-6.33,0.722-8.868c-1.197-2.523-2.358-5.115-3.49-7.701c-0.302-0.695-0.538-1.409-0.805-2.079
				c-2.507,0.915-4.99,2.067-4.99,2.067s-0.953,5.719-0.534,12.025c1.503,2.171,3.069,4.337,4.775,6.512
				c0.416,0.534,0.906,1.092,1.356,1.632c0.452,0.54,1.085,1.172,1.634,1.736c1.428,1.258,2.787,2.092,4.069,2.732
				c2.583,1.312,5.071,2.203,7.568,3.032C374.435,349.742,376.987,350.461,379.548,351.109z"/>
			<path style="fill:#FBD167;" d="M361.562,322.921c0,0-5.324,7.051-12.063,8.108c-2.391-2.82-7.444-11.536-7.786-13.984
				c-0.342-2.448,6.57-9.636,12.915-5.875C357.316,314.008,361.562,322.921,361.562,322.921z"/>
			<path style="fill:#004789;" d="M374.124,387.062l-0.035-0.299l-0.48-1.296l-14.503-39.106c-0.912-2.46-3.726-3.623-6.109-2.525
				l-1.908,0.879c-0.207-0.059-0.41-0.129-0.629-0.16l-11.362-1.597c-2.249-0.316-4.425,1.007-5.224,3.212
				c-1.036,2.861-2.282,7.042-2.64,11.378c-0.532,6.435,1.147,22.476,1.754,27.915l-0.178,3.168l-10.706,36.437l7.26,2.943
				l16.514-35.561l0.126-0.272l0.279-1.351l3.839-18.58l10.656,19.129l10.029,36.446l7.936-1.558L374.124,387.062z"/>
			<g style="opacity:0.5;">
				<path style="fill:#004789;" d="M367.245,392.501l-3.119-2.079c-1.755-2.459-3.51-4.919-5.266-7.378
					c-1.506-2.11-3.012-4.22-4.518-6.33c-1.601-2.243-2.472-4.902-3.581-7.435c-0.732-1.673-1.468-3.359-1.861-5.142
					c-0.616-2.792-0.323-5.764,0.762-8.404c0.207-0.503,3.471-5.797,3.519-5.732c-0.021-0.028-2.885-3.891-4.026-3.31
					c0,0-12.361,3.536-17.487,7.569c-0.19,1.074-0.342,2.176-0.434,3.29c-0.532,6.435,1.147,22.476,1.754,27.915l-0.177,3.168
					l-3.47,11.81l5.712-8.98l11.996-4.338l3.074-14.876l10.656,19.129l8.88,32.271l-5.273-27.768L367.245,392.501z"/>
				<polygon style="fill:#004789;" points="369.658,423.648 369.658,423.648 369.658,423.648 				"/>
			</g>
			<path style="fill:#FFE76B;" d="M341.971,309.02c0.032-0.018,0.064-0.036,0.097-0.054c3.247-1.745,8.511-2.174,11.598,0.049
				c4.569,3.29,8.042,8.042,6.945,11.88c-1.097,3.838-5.483,7.494-3.29,14.439c2.193,6.945,3.494,12.063,3.494,12.063
				s-2.763,2.742-17.568,3.838c-7.859,0.548-10.967-3.838-10.967-3.838s5.118-16.815,6.032-24.675
				c0.315-2.705,0.569-5.426,1.033-8.111C339.694,312.591,340.041,310.131,341.971,309.02z"/>
			<path style="fill:#FCB19A;" d="M346.018,301.228c0,0-0.888,6.312-1.672,8.194c0.681,1.907,8.695,4.24,12.058,3.519
				c0.618-1.114-1.699-4.178-6.029-5.325c-0.802-1.277,0.049-5.459,0.049-5.459S348.711,301.114,346.018,301.228z"/>
			<path style="fill:#FCB19A;" d="M341.933,291.513c0,0-2.01,7.671,6.126,11.158c1.979,0.848,4.887,1.84,6.831,0.359
				c2.609-1.988,1.649-6.789,0.877-9.503c-0.942-3.308-3.218-5.929-6.678-6.663C343.061,285.586,341.933,291.513,341.933,291.513z"
				/>
			<path style="opacity:0.5;fill:#FFE76B;" d="M347.167,331.029c3.186-1.716,6.742-8.274,6.742-8.274
				c-1.68-2.784-10.418-3.499-15.269-2.925c-0.109,0.965-0.215,1.93-0.327,2.893c-0.914,7.859-6.032,24.675-6.032,24.675
				s2.122,2.978,7.272,3.716c-0.079-0.29-2.245-8.265-1.288-10.962C339.239,337.404,343.98,332.745,347.167,331.029z"/>
			<g>
				<path style="fill:#F7941D;" d="M352.219,308.494c-1.039-0.396-2.306-0.379-3.847,0.224c-2.298,0.9-4.931,2.658-6.659,4.356
					c-2.939,2.887-5.056,6.166-7.344,9.571c-2.01,2.992-3.481,6.511-5.085,9.745c-2.473,4.985-5.464,9.248-8.834,13.672
					c-5.217,6.848-6.684,13.368,2.935,17.933c9.62,4.565,18.094,4.402,18.257,0.652c0.186-4.29,2.955-8.106,4.766-11.847
					c2.033-4.202,3.82-8.524,5.349-12.935c2.111-6.093,4.656-11.867,4.918-18.425C356.829,317.602,356.202,310.013,352.219,308.494z
					 M344.414,345.9c-12.39-0.815-13.368-8.066-13.368-8.066c2.282-8.555,10.923-20.952,14.403-24.196
					c5.926-4.712,8.147-2.811,8.746,2.756C354.684,325.686,347.837,342.314,344.414,345.9z"/>
				<path style="opacity:0.5;fill:#F7941D;" d="M333.719,342.178c-2.369-2.122-2.673-4.344-2.673-4.344
					c0.218-0.816,0.508-1.674,0.832-2.548c-1.516-1.01-3.312-1.141-4.768,1.843c-2.535,5.198-4.406,20.325-4.62,26.419
					c0.288,0.151,0.585,0.301,0.896,0.448c2.897,1.374,5.684,2.313,8.177,2.861c0.004-1.295-1.261-4.426-1.13-10.595
					C330.534,351.502,332.39,345.729,333.719,342.178z"/>
			</g>
			<path style="fill:#FCB19A;" d="M354.016,312.525c-2.471-3.1-7.084-3.386-9.918-0.615c-1.899,1.856-3.778,3.724-5.656,5.623
				c-3.606,3.676-7.159,7.319-10.628,11.49c-0.434,0.519-0.878,1.115-1.31,1.668c-0.433,0.555-0.919,1.307-1.354,1.963
				c-0.93,1.661-1.461,3.164-1.816,4.552c-0.74,2.801-1.089,5.42-1.375,8.036c-0.513,5.22-0.666,10.301-0.626,15.461
				c0,0-0.04,0.825-0.006,2.241c0,0-0.766,1.947-1.785,2.861c-0.68,0.642-1.088,1.05-1.088,1.05s1.088,0.204,2.107-0.476
				c0.783-0.522,1.364-1.373,2.091-0.248c-0.443,0.823-0.884,1.651-1.325,2.477c0,0-0.601,0.51-1.62,0.057
				c-1.02-0.453-2.143,0.982-2.143,0.982s3.482,1.741,3.763,1.625c0.281-0.116,3.897-2.669,4.322-4.294c0.425-1.625,0-5.993,0-5.993
				c0.792-4.872,1.794-9.801,3.079-14.482c0.657-2.322,1.403-4.629,2.308-6.585c0.434-1.002,0.971-1.789,1.365-2.268
				c0.347-0.328,0.587-0.609,1-0.983c0.419-0.372,0.791-0.735,1.238-1.114c3.553-3.04,7.601-6.01,11.613-8.902
				c2.09-1.498,4.211-2.99,6.339-4.461C355.775,319.99,356.43,315.554,354.016,312.525z"/>
			<path style="opacity:0.5;fill:#FCB19A;" d="M342.237,313.76c-1.267,1.252-2.536,2.5-3.796,3.774
				c-1.118,1.14-2.229,2.282-3.336,3.433c0.412,0.714,0.886,1.498,1.381,2.243c1.473,2.218,1.306,5.152-0.435,7.168
				c-1.73,2.003-3.541,3.894-3.77,4.261c-0.404,0.648-3.401,0.857-2.941,1.515c0.46,0.659,1.026,1.513-0.048,4.488
				c-1.074,2.975-2.81,15.62-2.81,15.62l0.011-0.013c0.633-3.298,1.363-6.578,2.232-9.744c0.657-2.322,1.403-4.629,2.308-6.585
				c0.434-1.002,0.971-1.789,1.366-2.268c0.347-0.328,0.587-0.609,1-0.983c0.419-0.372,0.791-0.735,1.238-1.114
				c3.553-3.04,7.601-6.01,11.613-8.902c1.252-0.898,2.529-1.783,3.798-2.673L342.237,313.76z"/>
			<path style="fill:#FFE76B;" d="M337.113,316.96c0,0,4.368,9.453,11.1,10.871c0,0,8.837-6.596,9.004-10.633
				s-6.649-11.793-13.535-6.253C340.912,313.319,337.113,316.96,337.113,316.96z"/>
			<path style="fill:#004789;" d="M356.502,290.39c0,0-2.552,3.029-6.078,2.845c-1.048-0.184-1.048,2.019-0.589,3.946
				c0.459,1.927-1.744,0.275-2.57-1.56c-0.826-1.836-3.579,0.898-1.744,2.422c1.835,1.524,2.691,2.868,2.538,4.628
				c-0.152,1.76,1.958,4.071,5.63,4.476c0,0-4.296,6.214-13.62,4.319c-9.324-1.895-3.433-21.26,0-25.757
				C343.502,281.212,353.717,282.038,356.502,290.39z"/>
			<path style="opacity:0.5;fill:#004789;" d="M350.424,293.235c3.295,0.172,5.738-2.46,6.044-2.806l-0.099-0.364
				c-0.016-0.043-0.035-0.083-0.052-0.126c-0.164,0.07-4.74,2.021-7.602,1.33c-2.914-0.703-4.106-2.217-5.62,0.147
				c-1.514,2.365-1.012,7.992-4.83,9.298c-1.225,0.419-2.262,0.36-3.114,0.103c-0.45,5.154,0.604,9.772,4.918,10.649
				c9.324,1.895,13.62-4.319,13.62-4.319c-3.671-0.405-5.782-2.716-5.63-4.476c0.152-1.76-0.703-3.104-2.538-4.628
				c-1.836-1.524,0.918-4.258,1.744-2.422c0.826,1.836,3.029,3.487,2.57,1.56C349.375,295.254,349.375,293.051,350.424,293.235z"/>
		</g>
		<path style="fill:#654957;" d="M434.942,430.729c-1.483-7.914-8.895-13.93-17.815-13.93c-8.921,0-16.333,6.016-17.815,13.93
			c-0.284,1.513,0.874,2.916,2.414,2.916h30.803C434.068,433.645,435.225,432.242,434.942,430.729z"/>
		<path style="fill:#FCCFBF;" d="M177.893,430.729c-1.482-7.914-8.895-13.93-17.815-13.93c-8.921,0-16.333,6.016-17.815,13.93
			c-0.283,1.513,0.874,2.916,2.414,2.916h30.803C177.019,433.645,178.176,432.242,177.893,430.729z"/>
		<path style="fill:#E26F61;" d="M189.349,431.777c-0.95-5.07-5.698-8.924-11.413-8.924s-10.463,3.854-11.413,8.924
			c-0.182,0.969,0.56,1.868,1.546,1.868h19.733C188.789,433.645,189.53,432.746,189.349,431.777z"/>
		<path style="fill:#9E8D95;" d="M445.484,430.101c-1.445-2.945-4.635-4.991-8.338-4.991c-3.703,0-6.893,2.046-8.338,4.991
			c-0.801,1.633,0.382,3.544,2.201,3.544h12.275C445.102,433.645,446.285,431.734,445.484,430.101z"/>
	</g>
</g>
<g id="DESIGNED_BY_FREEPIK">
	<g>
		<g id="XMLID_319_">
			<g id="XMLID_338_">
				<path id="XMLID_346_" style="fill:#1C1C1B;" d="M260.104,470.394c-0.432,0.443-0.803,0.931-1.108,1.453l-0.465-0.241
					c-0.067-0.298-0.349-0.503-0.659-0.466c-0.331,0.039-0.568,0.339-0.529,0.67c0.039,0.331,0.339,0.568,0.67,0.529
					c0.066-0.008,0.127-0.026,0.184-0.052l0.451,0.234c-0.251,0.554-0.433,1.139-0.539,1.744l0.747,0.132
					c0.23-1.306,0.85-2.507,1.792-3.473L260.104,470.394z"/>
				<path id="XMLID_345_" style="fill:#1C1C1B;" d="M265.592,468.092c-0.171,0-0.341,0.006-0.51,0.017l-0.074-0.626
					c0.188-0.149,0.296-0.389,0.266-0.645c-0.046-0.393-0.402-0.674-0.795-0.628c-0.393,0.046-0.674,0.402-0.628,0.795
					c0.03,0.254,0.189,0.461,0.404,0.564l0.074,0.624c-0.714,0.116-1.403,0.332-2.06,0.646l0.327,0.684
					c0.934-0.447,1.942-0.673,2.995-0.673c0.496,0,0.993,0.053,1.475,0.158l0.161-0.741
					C266.692,468.151,266.142,468.092,265.592,468.092z"/>
				<path id="XMLID_344_" style="fill:#1C1C1B;" d="M272.194,470.639c0.331-0.04,0.566-0.341,0.526-0.672
					c-0.04-0.331-0.341-0.566-0.672-0.526c-0.309,0.038-0.535,0.304-0.53,0.609l-0.416,0.363c-0.418-0.43-0.889-0.813-1.408-1.139
					l-0.404,0.641c1.134,0.715,2.021,1.726,2.563,2.925l0.69-0.313c-0.251-0.554-0.567-1.072-0.942-1.545l0.402-0.351
					C272.065,470.644,272.129,470.647,272.194,470.639z"/>
				<path id="XMLID_343_" style="fill:#1C1C1B;" d="M265.044,478.3c-0.386,0.023-0.775,0.035-1.157,0.035
					c-0.88,0-1.733-0.061-2.478-0.179c-0.39-0.062-0.846-0.155-1.27-0.292c1.046,1.861,3.069,3.125,5.388,3.125
					c2.855,0,5.262-1.916,5.95-4.504c-0.682,0.449-1.505,0.825-2.459,1.123C267.839,477.976,266.463,478.215,265.044,478.3z"/>
				<path id="XMLID_339_" style="fill:#1C1C1B;" d="M265.592,469.608c-3.352,0-6.08,2.666-6.08,5.944
					c0,0.426,0.046,0.849,0.137,1.261c0.673,0.483,2.706,0.89,5.348,0.731c2.879-0.173,5.297-0.957,6.672-2.159
					c-0.006-0.195-0.021-0.39-0.045-0.582C271.244,471.842,268.65,469.608,265.592,469.608z M263.432,476.123
					c-1.02,0-1.85-0.83-1.85-1.85c0-1.02,0.83-1.85,1.85-1.85c1.02,0,1.85,0.83,1.85,1.85
					C265.282,475.293,264.452,476.123,263.432,476.123z M268.17,475.215c-0.75,0-1.36-0.61-1.36-1.36c0-0.75,0.61-1.361,1.36-1.361
					c0.75,0,1.361,0.61,1.361,1.361C269.53,474.605,268.92,475.215,268.17,475.215z"/>
			</g>
			<path id="XMLID_336_" style="fill:#1C1C1B;" d="M281.595,471.475c-0.295-0.116-0.805-0.309-1.382-0.237
				c-0.551,0.068-0.844,0.34-0.844,1.007v0.866h2.228v1.717h-2.228v5.455h-1.932v-5.455h-1.34v-1.717h1.34v-0.888
				c0-1.68,0.896-2.783,2.568-2.783c0.643,0,1.157,0.122,1.59,0.308L281.595,471.475z"/>
			<path id="XMLID_334_" style="fill:#1C1C1B;" d="M286.298,474.807c-0.177-0.03-0.358-0.046-0.526-0.046
				c-0.896,0-1.51,0.548-1.51,1.613v3.908h-1.932v-7.172h1.873v0.785c0.451-0.674,1.14-0.977,2.021-0.977
				c0.414,0,0.848,0.128,1.094,0.337L286.298,474.807z"/>
			<path id="XMLID_331_" style="fill:#1C1C1B;" d="M293.965,476.685c0,0.222-0.015,0.489-0.037,0.651h-5.085
				c0.207,1.036,0.933,1.488,1.843,1.488c0.622,0,1.295-0.252,1.813-0.688l1.133,1.243c-0.814,0.748-1.85,1.088-3.057,1.088
				c-2.198,0-3.723-1.495-3.723-3.753c0-2.257,1.48-3.797,3.627-3.797C292.544,472.918,293.958,474.45,293.965,476.685z
				 M288.851,476.019h3.175c-0.177-0.918-0.733-1.436-1.562-1.436C289.554,474.583,289.021,475.131,288.851,476.019z"/>
			<path id="XMLID_328_" style="fill:#1C1C1B;" d="M301.618,476.685c0,0.222-0.015,0.489-0.037,0.651h-5.085
				c0.207,1.036,0.933,1.488,1.843,1.488c0.622,0,1.295-0.252,1.814-0.688l1.132,1.243c-0.814,0.748-1.85,1.088-3.057,1.088
				c-2.198,0-3.723-1.495-3.723-3.753c0-2.257,1.48-3.797,3.627-3.797C300.197,472.918,301.611,474.45,301.618,476.685z
				 M296.504,476.019h3.175c-0.178-0.918-0.733-1.436-1.562-1.436C297.207,474.583,296.674,475.131,296.504,476.019z"/>
			<path id="XMLID_325_" style="fill:#1C1C1B;" d="M309.964,476.693c0,2.154-1.495,3.775-3.471,3.775
				c-0.962,0-1.643-0.378-2.109-0.933v3.708h-1.924v-10.133h1.887v0.792c0.466-0.585,1.155-0.984,2.139-0.984
				C308.469,472.918,309.964,474.539,309.964,476.693z M304.287,476.693c0,1.132,0.748,1.976,1.843,1.976
				c1.14,0,1.85-0.881,1.85-1.976c0-1.095-0.71-1.976-1.85-1.976C305.035,474.717,304.287,475.56,304.287,476.693z"/>
			<path id="XMLID_322_" style="fill:#1C1C1B;" d="M313.068,470.764c0,0.696-0.54,1.229-1.236,1.229
				c-0.696,0-1.229-0.533-1.229-1.229c0-0.696,0.533-1.243,1.229-1.243C312.527,469.521,313.068,470.069,313.068,470.764z
				 M312.809,480.283h-1.932v-7.172h1.932V480.283z"/>
			<path id="XMLID_320_" style="fill:#1C1C1B;" d="M316.032,475.664l2.701-2.554h2.368l-3.479,3.375l3.501,3.797h-2.376
				l-2.716-2.901v2.901H314.1v-10.658h1.932V475.664z"/>
		</g>
		<g>
			<path style="fill:#1C1C1B;" d="M184.412,480.217v-1.055c-0.527,0.718-1.391,1.23-2.387,1.23c-1.846,0-3.149-1.406-3.149-3.706
				c0-2.256,1.289-3.721,3.149-3.721c0.952,0,1.816,0.469,2.387,1.245v-3.765h1.099v9.77H184.412z M184.412,478.299v-3.208
				c-0.395-0.615-1.245-1.143-2.124-1.143c-1.421,0-2.27,1.172-2.27,2.739c0,1.567,0.85,2.724,2.27,2.724
				C183.168,479.412,184.017,478.914,184.412,478.299z"/>
			<path style="fill:#1C1C1B;" d="M186.932,476.673c0-2.051,1.465-3.706,3.486-3.706c2.139,0,3.398,1.67,3.398,3.794v0.279h-5.727
				c0.088,1.333,1.025,2.446,2.549,2.446c0.805,0,1.626-0.322,2.182-0.893l0.527,0.718c-0.703,0.703-1.655,1.084-2.812,1.084
				C188.44,480.393,186.932,478.885,186.932,476.673z M190.403,473.875c-1.509,0-2.256,1.274-2.314,2.358h4.643
				C192.718,475.179,192.015,473.875,190.403,473.875z"/>
			<path style="fill:#1C1C1B;" d="M194.607,479.28l0.571-0.791c0.469,0.542,1.362,1.011,2.329,1.011c1.084,0,1.67-0.513,1.67-1.216
				c0-1.714-4.38-0.659-4.38-3.281c0-1.098,0.952-2.036,2.636-2.036c1.201,0,2.051,0.454,2.622,1.026l-0.513,0.762
				c-0.424-0.513-1.201-0.894-2.109-0.894c-0.967,0-1.567,0.483-1.567,1.113c0,1.553,4.38,0.527,4.38,3.281
				c0,1.187-0.952,2.139-2.783,2.139C196.306,480.393,195.325,480.042,194.607,479.28z"/>
			<path style="fill:#1C1C1B;" d="M201.477,471.4c0-0.41,0.337-0.747,0.732-0.747c0.41,0,0.747,0.337,0.747,0.747
				c0,0.41-0.337,0.732-0.747,0.732C201.814,472.132,201.477,471.81,201.477,471.4z M201.667,480.217v-7.075h1.099v7.075H201.667z"
				/>
			<path style="fill:#1C1C1B;" d="M204.582,482.034l0.556-0.82c0.586,0.703,1.289,0.967,2.3,0.967c1.172,0,2.27-0.571,2.27-2.124
				v-1.011c-0.513,0.718-1.377,1.26-2.373,1.26c-1.845,0-3.149-1.377-3.149-3.662c0-2.27,1.289-3.677,3.149-3.677
				c0.952,0,1.802,0.469,2.373,1.245v-1.069h1.098v6.87c0,2.344-1.641,3.076-3.369,3.076
				C206.237,483.089,205.417,482.854,204.582,482.034z M209.709,478.182v-3.091c-0.381-0.615-1.23-1.143-2.109-1.143
				c-1.421,0-2.27,1.128-2.27,2.695c0,1.553,0.849,2.695,2.27,2.695C208.478,479.339,209.328,478.797,209.709,478.182z"/>
			<path style="fill:#1C1C1B;" d="M217.413,480.217v-4.629c0-1.245-0.63-1.641-1.582-1.641c-0.865,0-1.685,0.527-2.095,1.099v5.17
				h-1.099v-7.075h1.099v1.025c0.498-0.586,1.464-1.201,2.519-1.201c1.48,0,2.256,0.747,2.256,2.285v4.966H217.413z"/>
			<path style="fill:#1C1C1B;" d="M219.932,476.673c0-2.051,1.465-3.706,3.486-3.706c2.139,0,3.398,1.67,3.398,3.794v0.279h-5.727
				c0.088,1.333,1.025,2.446,2.549,2.446c0.806,0,1.626-0.322,2.183-0.893l0.527,0.718c-0.703,0.703-1.655,1.084-2.812,1.084
				C221.441,480.393,219.932,478.885,219.932,476.673z M223.404,473.875c-1.509,0-2.256,1.274-2.314,2.358h4.643
				C225.718,475.179,225.015,473.875,223.404,473.875z"/>
			<path style="fill:#1C1C1B;" d="M233.35,480.217v-1.055c-0.527,0.718-1.392,1.23-2.388,1.23c-1.846,0-3.149-1.406-3.149-3.706
				c0-2.256,1.289-3.721,3.149-3.721c0.952,0,1.817,0.469,2.388,1.245v-3.765h1.098v9.77H233.35z M233.35,478.299v-3.208
				c-0.396-0.615-1.245-1.143-2.124-1.143c-1.421,0-2.27,1.172-2.27,2.739c0,1.567,0.849,2.724,2.27,2.724
				C232.105,479.412,232.954,478.914,233.35,478.299z"/>
			<path style="fill:#1C1C1B;" d="M239.692,480.217v-9.77h1.098v3.765c0.572-0.776,1.421-1.245,2.388-1.245
				c1.845,0,3.149,1.465,3.149,3.721c0,2.299-1.304,3.706-3.149,3.706c-0.996,0-1.86-0.513-2.388-1.23v1.055H239.692z
				 M242.9,479.412c1.436,0,2.285-1.157,2.285-2.724c0-1.568-0.85-2.739-2.285-2.739c-0.864,0-1.728,0.527-2.109,1.143v3.208
				C241.171,478.914,242.036,479.412,242.9,479.412z"/>
			<path style="fill:#1C1C1B;" d="M247.528,481.99c0.161,0.073,0.425,0.117,0.601,0.117c0.483,0,0.805-0.161,1.055-0.747
				l0.469-1.069l-2.959-7.148h1.187l2.358,5.801l2.344-5.801h1.201l-3.545,8.51c-0.425,1.025-1.143,1.421-2.08,1.435
				c-0.234,0-0.601-0.044-0.805-0.103L247.528,481.99z"/>
		</g>
	</g>
</g>
</svg>
